<?xml version="1.0" encoding="utf-8"?>
<!-- Generator: Adobe Illustrator 21.0.0, SVG Export Plug-In . SVG Version: 6.00 Build 0)  -->
<svg version="1.1" id="Слой_1" xmlns="http://www.w3.org/2000/svg" xmlns:xlink="http://www.w3.org/1999/xlink" x="0px" y="0px"
	 viewBox="0 0 311 380" style="enable-background:new 0 0 311 380;" xml:space="preserve">
<style type="text/css">
	.st0{fill:#FFFFFF;stroke:#000000;stroke-width:72.9003;}
</style>
<g>
	<path class="st0" d="M47,179.8"/>
	<path d="M94.3,162.2c-1.1,7.2-3.2,24.6,1.4,41.8c0.9,2.3,3.2,1.7,4.1,0.6c0.3-0.5,3.3-3.3,3.3-3.3c1.1-1.6,2.1-1.1,2.9,0
		c0.8,1.1,2.9,4.4,6.1,4.6c3.2,0.2,8.2-3.7,10.2-5.2c1.4,2.6,3,5.1,5.8,4.9c2.7-0.2,5.4-2.1,7.6-4.6c1.7,1.9,3.5,4.1,5.7,4
		c2.1-0.2,6.1-2.4,9.9-5.9c1.6-1.7,3.2-0.9,4.3,0.8c1.1,1.7,2.6,4.4,4.6,4.4c1.9,0,4.9-2.7,5.8-3.5c0.9-0.8,1.9-1.4,2.9-0.2l2.3,2.1
		c1.4,1.4,4.3,1.1,6.4-0.9c2.1-1.9,2.6-2.6,3.5-2.6s1.4,1.2,2.3,2.1c0.9,0.9,7.9,7,17.2-2.4c0.2,4.7-0.9,31.3-0.9,35.1
		c0,1.9,2.1,2.4,5.2,1.9c3-0.6,4.6-1.6,4.4-5.9c-0.2-4.4-0.8-26.2-0.8-26.2c0.5-3.5,3.5-9.3,6.7-9.5c3.2-0.2,1.7,3.8,0.2,3.8
		c-1.6,0-3.2,0.8-3.2,2.1c0,1.4,0.5,5.4,9.5,5.4c9,0,10-2.9,12.5-4c1.6,2.9,6.1,7.5,18.7-0.6c2.6,3,7.5,6.8,12.8,3
		c1.7-1.4,3.3-4.6,2.7-7.3c-0.5-1.1-0.2-1.6,0.6-1.6c0.8,0,4,0,5.1,0c1.1,0,2.9,0.8,3.5,3.8c0.6,3,2.7,5.7,4.4,5.5
		c1.7-0.2,4.9-2.7,6.7-4.6c1.6,2.1,8.1,12.1,20.1-4.6c1.1-1.6-0.6-2.3-1.6-1.2c-0.9,1.1-3.7,2.7-5.9,2.9c-2.3,0.2-5.1-2.1-7.2-5.1
		c-2.1-2.9-4.6-1.9-6.1,0.5c-1.1,1.2-1.7,2.4-2.9,3.8c-0.8-1.4-1.7-4.3-3.2-5.4c-1.6-1.1-2.7-1.2-6.4-0.3s-7.8,1.4-11.9,1.6
		c-2.3-0.2-1.7,0.9-1.6,1.9c0.2,0.9,1.9,4.7-1.2,4.9c-3,0.2-2.7-4.4-0.6-6.8c1.1-1.1-0.5-3.3-2.1-2.4c-1.7,0.9-2.7,1.4-4.1,3.5
		s-4.3,5.4-9,5.5s-3.3-5.4-3.2-7.8c0-1.4-0.9-2.6-3.3-1.9c-2.4,0.6-5.7,0.3-5.4,7c-1.7,2.4-5.5,4-8.6,3.5c-0.9-0.2-1.2-0.6-0.9-1.7
		c0.3-1.1,1.1-7-3.5-8.6c-4.6-1.6-8.1,0.6-10.3,2.6c-1.2,0.6-1.6,0-1.6-1.1l0.2-5.7c0-2.6-5.2-3.2-5.9-0.2c-0.8,3-1.7,9-6.2,11.1
		c-4.6,2.1-6.1-0.6-8.6-3.7c-2.4-3-4.9-2.9-7.6-0.2l-2.7,2.6c-1.1,0.9-1.7,0.6-2.6-0.8c-0.9-1.4-1.6-3.2-3.2-3.3
		c-1.7-0.2-1.9,0.5-3.2,1.4l-3.5,2.7c-1.4,1.1-1.7,1.1-3-0.8c0,0-2.3-3.8-4.6-3.8c-2.3,0-3,1.4-4.4,2.4c0,0-3.5,2.4-4.7,3.5
		c-1.2,1.1-4.7,3.2-8.1-1.9c-1.2-1.9-3.3-3.2-4.9-0.6c-1.6,2.6-4,6.5-5.8,5.4c-1.9-1.2,1.2-4.7,3.5-5.1c2.3-0.3,0.9-3.2-1.4-3.3
		c-2.3-0.2-5.9,1.4-7.6,3.3c-1.7,1.9-4.4,4.3-7.2,4.1c-2.7-0.2-3.3-2.3-4.7-5.2c-1.4-3-3.8-2.6-5.7-1.1c-1.9,1.6-2.3,1.9-3.7,3.7
		s-1.4,0.8-1.6-0.3s-1.1-20.8,0.5-33.4C102.2,158.3,95.6,157.3,94.3,162.2z"/>
	<g>
		<circle cx="238.5" cy="180.9" r="4.7"/>
	</g>
	<path d="M86.7,190.5c-0.6,0.5-17.8,6.2-27.3,6.8V162c5.5,0.2,15.9,2.4,22.4,4.9c1.6,0.8,4.7-0.2,1.4-3.5c-7.8-6.2-20-11-36.2-11
		s-45.1,9-45.1,27.3s23.2,27.4,45.3,27.4c15.5,0,30-5.7,40.5-15.7C89.4,189.8,87.3,190.1,86.7,190.5z M34.4,197.3
		c-13.1-2.7-22.5-9.5-22.5-17.5s9.3-14.8,22.5-17.5V197.3z"/>
	<path d="M301.9,185.9c-1.2,0-2.3,0.9-2.3,2.2c0,1.2,1,2.2,2.3,2.2c1.2,0,2.2-0.9,2.2-2.2C304.2,186.9,303.1,185.9,301.9,185.9z
		 M301.9,189.8c-1,0-1.8-0.8-1.8-1.7s0.8-1.7,1.8-1.7s1.8,0.8,1.8,1.7C303.7,189.1,302.9,189.8,301.9,189.8z"/>
	<path d="M303.1,187.5c0-0.2-0.1-0.4-0.3-0.5c-0.2-0.1-0.4-0.1-0.6-0.1H301v2.4h0.4v-1.1h0.5l0.7,1.1h0.4l-0.8-1.1
		C302.7,188.1,303.1,188,303.1,187.5z M301.9,187.9h-0.4v-0.8h0.6c0.3,0,0.6,0.1,0.6,0.4C302.7,187.9,302.2,187.9,301.9,187.9z"/>
</g>
</svg>
