<svg xmlns="http://www.w3.org/2000/svg" xmlns:xlink="http://www.w3.org/1999/xlink" viewBox="0 0 256.1 325.5"><defs><style>.cls-1,.cls-10,.cls-11,.cls-17,.cls-9{fill:#fff;}.cls-1,.cls-16,.cls-6{stroke:#e0e0e0;}.cls-1,.cls-16,.cls-2,.cls-6{stroke-miterlimit:10;}.cls-16,.cls-2{fill:none;}.cls-2{stroke:#bcbcbc;stroke-width:1.5px;}.cls-11,.cls-17,.cls-3,.cls-4,.cls-6,.cls-7,.cls-9{isolation:isolate;}.cls-11,.cls-3{font-size:15.26px;}.cls-3{fill:gray;}.cls-11,.cls-17,.cls-3,.cls-4,.cls-9{font-family:ArialMT, Arial;}.cls-4{font-size:17.81px;}.cls-5{letter-spacing:-0.01em;}.cls-6,.cls-7{opacity:0.3;}.cls-8{fill:#d65600;}.cls-9{font-size:15.36px;}.cls-12{letter-spacing:0.01em;}.cls-13{letter-spacing:-0.01em;}.cls-14{letter-spacing:0em;}.cls-15{letter-spacing:0.02em;}.cls-17{font-size:24px;letter-spacing:0.08em;}</style></defs><title>temp_item</title><g id="Слой_2" data-name="Слой 2"><g id="Слой_1-2" data-name="Слой 1"><g id="ads_bar" data-name="ads bar"><g id="item"><path id="text_holed" data-name="text holed" class="cls-1" d="M.5,255H254.9v67.4a2.58,2.58,0,0,1-2.6,2.6H3.1a2.58,2.58,0,0,1-2.6-2.6Z"/><polygon id="star" class="cls-2" points="229.7 290.3 232.9 296.7 239.9 297.7 234.8 302.7 236 309.7 229.7 306.4 223.4 309.7 224.6 302.7 219.5 297.7 226.5 296.7 229.7 290.3"/><text class="cls-3" transform="translate(14.95 305.79)">Zara</text><text class="cls-4" transform="translate(13.95 280.73)">Бо<tspan class="cls-5" x="21.59" y="0">мб</tspan><tspan x="43.63" y="0">ер</tspan></text><text class="cls-4" transform="translate(188.4 280.37)">1500 ₽</text><image width="963" height="963" transform="translate(0.5) scale(0.26)" xlink:href="../../Users/Александра/Desktop/KK/8EB9BB16.jpg"/><path id="cover" class="cls-6" d="M255.5,255H1.1V3.2A2.58,2.58,0,0,1,3.7.6H253a2.58,2.58,0,0,1,2.6,2.6V255Z"/><path class="cls-7" d="M244.3,217.2H192.2a3.16,3.16,0,0,0-3.2,3.2v22.8a3.16,3.16,0,0,0,3.2,3.2h52.1a3.16,3.16,0,0,0,3.2-3.2V220.4A3.1,3.1,0,0,0,244.3,217.2Z"/><path id="like" class="cls-8" d="M232.8,222.6a4.72,4.72,0,0,0-3,1,7.45,7.45,0,0,0-1.7,2.1,7.44,7.44,0,0,0-1.7-2.1,4.72,4.72,0,0,0-3-1,5.48,5.48,0,0,0-5.4,5.8c0,3.6,2.9,6,7.2,9.7.7.6,1.6,1.3,2.4,2.1a.5.5,0,0,0,.8,0q1.35-1.2,2.4-2.1c4.4-3.7,7.2-6.2,7.2-9.7A5.21,5.21,0,0,0,232.8,222.6Z"/><text class="cls-9" transform="translate(194.54 237.95)">20</text><path id="location" class="cls-10" d="M19,10.2a8,8,0,0,0-8,8,7.11,7.11,0,0,0,.7,3.2,50.79,50.79,0,0,0,6.9,10.3c.1.1.2.2.3.2s.3-.1.3-.2a50.79,50.79,0,0,0,6.9-10.3,7.11,7.11,0,0,0,.7-3.2A7.67,7.67,0,0,0,19,10.2Zm0,12.1a4.1,4.1,0,0,1,0-8.2,4.19,4.19,0,0,1,4.1,4.1A4.05,4.05,0,0,1,19,22.3Z"/><text class="cls-11" transform="translate(35.95 26.38)"><tspan class="cls-12">М</tspan><tspan x="12.89" y="0">оск</tspan><tspan class="cls-13" x="35.69" y="0">в</tspan><tspan class="cls-14" x="43.62" y="0">а</tspan></text><path id="send" class="cls-10" d="M25.4,52.9h-4v-4a1.8,1.8,0,1,0-3.6,0v4h-4a1.8,1.8,0,1,0,0,3.6h4v4a1.8,1.8,0,0,0,3.6,0v-4h4a1.8,1.8,0,1,0,0-3.6Z"/><text class="cls-11" transform="translate(35.95 59.45)">Пересыл<tspan class="cls-15" x="63.95" y="0">к</tspan><tspan class="cls-14" x="70.96" y="0">а</tspan></text><path id="photo_holer" data-name="photo holer" class="cls-16" d="M254.9,255H.5V3.2A2.58,2.58,0,0,1,3.1.6H252.4A2.58,2.58,0,0,1,255,3.2V255Z"/><text class="cls-17" transform="translate(228.32 32.06)">S</text></g></g></g></g></svg>