<svg xmlns="http://www.w3.org/2000/svg" viewBox="0 0 34.6 34.6"><defs><style>.cls-1{fill:#e0e0e0;}.cls-2{fill:#fff;}</style></defs><title>back_arrow</title><g id="Слой_2" data-name="Слой 2"><g id="Слой_1-2" data-name="Слой 1"><g id="categories"><g id="back"><path class="cls-1" d="M17.3,34.6A17.3,17.3,0,1,1,34.6,17.3,17.37,17.37,0,0,1,17.3,34.6Z"/><path class="cls-2" d="M19.7,8a1.9,1.9,0,0,0-1.3.5h0l-8,7.3a2.18,2.18,0,0,0,0,3l8,7.3h0a2.11,2.11,0,0,0,1.3.5,2,2,0,0,0,2-2,2.13,2.13,0,0,0-.7-1.5h0l-6.4-5.9L21,11.3h0a2.13,2.13,0,0,0,.7-1.5A2,2,0,0,0,19.7,8Z"/></g></g></g></g></svg>