<svg class="icon icon--best_fire" width="15" height="16" xmlns="http://www.w3.org/2000/svg">
    <use xmlns:xlink="http://www.w3.org/1999/xlink" xlink:href="#best_fire">
        <svg id="best_fire" viewBox="0 590 20 20" width="100%" height="100%" fill="#f94f4f">
            <path d="M6.407 609.796c-3.99-2.248-5.04-4.378-4.44-7.284.444-2.146 1.896-3.892 2.035-6.034.62 1.128.88 1.942.95 3.122 1.97-2.416 3.274-5.762 3.352-9.275 0 0 5.137 3.018 5.474 7.578.442-.94.665-2.433.223-3.4 1.327.968 9.092 9.555-1.05 15.295 1.906-3.714.49-8.724-2.82-11.038.222.995-.167 4.706-1.63 6.337.405-2.725-.387-3.877-.387-3.877s-.272 1.525-1.327 3.067c-.964 1.406-1.632 2.9-.38 5.51z"></path>
        </svg>
    </use>
</svg>