<svg xmlns="http://www.w3.org/2000/svg" viewBox="0 0 20 20"><defs><style>.cls-1{fill:#f94f4f;}</style></defs><title>important_red</title><g id="Слой_2" data-name="Слой 2"><g id="Слой_1-2" data-name="Слой 1"><path class="cls-1" d="M10,0A10,10,0,1,0,20,10,10,10,0,0,0,10,0Zm0,18.12A8.12,8.12,0,1,1,18.12,10,8.12,8.12,0,0,1,10,18.12ZM10,4.39c-.72,0-1.26.37-1.26,1V10.9c0,.6.54,1,1.26,1s1.26-.39,1.26-1V5.36C11.26,4.77,10.7,4.39,10,4.39Zm0,8.74a1.25,1.25,0,1,0,1.25,1.25A1.25,1.25,0,0,0,10,13.13Z"/></g></g></svg>