<svg version="1.1" id="logo" xmlns="http://www.w3.org/2000/svg" xmlns:xlink="http://www.w3.org/1999/xlink"
	 viewBox="0 0 100 100" style="enable-background:new 0 0 100 100;" xml:space="preserve" height="50px">
<path d="M12.3,85.3c-1.1-1.2-1.6-3.1-1.6-5.8V77h5.2v3.3c0,1.3,0.4,2,1.3,2c0.5,0,0.8-0.1,1-0.4c0.2-0.3,0.3-0.7,0.3-1.4
	c0-0.9-0.1-1.6-0.3-2.1c-0.2-0.6-0.5-1-0.8-1.4c-0.3-0.4-0.9-1-1.7-1.8l-2.3-2.3c-1.8-1.7-2.6-3.6-2.6-5.7c0-2.3,0.5-4,1.6-5.2
	s2.5-1.8,4.5-1.8c2.4,0,4.1,0.6,5.1,1.9s1.6,3.2,1.6,5.9h-5.4l0-1.8c0-0.3-0.1-0.6-0.3-0.8c-0.2-0.2-0.5-0.3-0.8-0.3
	c-0.4,0-0.7,0.1-0.9,0.3c-0.2,0.2-0.3,0.5-0.3,0.9c0,0.9,0.5,1.8,1.5,2.7l3.1,3c0.7,0.7,1.3,1.4,1.8,2s0.9,1.4,1.1,2.2
	c0.3,0.9,0.4,1.9,0.4,3c0,2.6-0.5,4.6-1.4,5.9s-2.5,2-4.7,2C15.1,87.1,13.4,86.5,12.3,85.3z"/>
<path d="M25.4,86.9V60.5h5.3v9.4h2.5v-9.4h5.3v26.4h-5.3v-12h-2.5v12H25.4z"/>
<path d="M40.7,86.9V60.5h8.1L51,76.6l2.2-16.1h8.1v26.4h-4.8v-19l-3,19h-4.7l-3.2-19v19H40.7z"/>
<path d="M65.1,85.2c-1.1-1.3-1.7-3.1-1.7-5.5V67.1c0-2.3,0.6-4,1.7-5.2c1.1-1.2,2.7-1.7,4.9-1.7c2.1,0,3.8,0.6,4.9,1.7
	c1.1,1.2,1.7,2.9,1.7,5.2v12.6c0,2.4-0.6,4.2-1.7,5.5c-1.1,1.3-2.7,1.9-4.9,1.9C67.8,87.1,66.2,86.5,65.1,85.2z M70.9,81.6
	c0.2-0.4,0.2-1,0.2-1.7V67c0-0.6-0.1-1-0.2-1.4c-0.2-0.4-0.5-0.5-0.9-0.5c-0.9,0-1.3,0.7-1.3,2v12.9c0,0.8,0.1,1.3,0.3,1.7
	c0.2,0.4,0.5,0.6,1,0.6C70.4,82.3,70.8,82,70.9,81.6z"/>
<path d="M80.9,86.9V65.5h-3.1v-5.1h11.6v5.1h-3.1v21.3H80.9z"/>
<path d="M84.7,46.1L57.3,30.5c-1.6-0.9-3.5-1.5-5.5-1.7v-1.9c3.1-0.8,5.4-3.6,5.4-6.9c0-3.9-3.2-7.1-7.1-7.1S43,16.1,43,20
	c0,0.9,0.7,1.7,1.7,1.7s1.7-0.7,1.7-1.7c0-2.1,1.7-3.7,3.7-3.7s3.7,1.7,3.7,3.7s-1.7,3.7-3.7,3.7c-0.9,0-1.7,0.7-1.7,1.7v3.4
	c-2,0.2-3.9,0.8-5.5,1.7L15.7,46.1c-1.9,1.1-3.2,3.1-3.2,5.4c0,3.4,2.7,6.1,6.1,6.1h63.1c3.4,0,6.1-2.7,6.1-6.1
	C87.9,49.2,86.7,47.2,84.7,46.1L84.7,46.1z M81.8,54.2H18.6c-1.5,0-2.8-1.2-2.8-2.8c0-1,0.5-1.9,1.5-2.4l27.4-15.6
	c0.6-0.3,2.6-1.4,5.5-1.4s5,1,5.5,1.4L83.1,49c0.9,0.5,1.4,1.4,1.4,2.4C84.5,53,83.3,54.2,81.8,54.2z"/>
</svg>