<svg version="1.1" id="search" xmlns="http://www.w3.org/2000/svg" xmlns:xlink="http://www.w3.org/1999/xlink" x="0px" y="0px"
	 viewBox="0 0 100 100" style="enable-background:new 0 0 100 100;" xml:space="preserve" height="50px">
<style type="text/css">
	.st0{fill:#BCBCBC;}
</style>
<path class="st0" d="M68,65.8l-9.1-9.5c2.3-2.8,3.6-6.3,3.6-10c0-8.5-6.9-15.5-15.5-15.5c-8.5,0-15.5,6.9-15.5,15.5
	S38.4,61.8,47,61.8c3.2,0,6.3-1,8.9-2.8l9.2,9.6c0.4,0.4,0.9,0.6,1.5,0.6c0.5,0,1-0.2,1.4-0.6C68.7,67.9,68.7,66.7,68,65.8z
	 M47.1,35c6.3,0,11.4,5.1,11.4,11.4s-5.1,11.4-11.4,11.4s-11.4-5.1-11.4-11.4S40.7,35,47.1,35z"/>
</svg>
