<svg xmlns="http://www.w3.org/2000/svg" viewBox="0 0 16.51 14.77"><title>tshirt</title><g id="Слой_2" data-name="Слой 2"><g id="Слой_1-2" data-name="Слой 1"><g id="container"><g id="stats"><path d="M16.27,3.9,12.61.24A.82.82,0,0,0,12,0H10.81a.82.82,0,0,0-.69.38,2.22,2.22,0,0,1-1.86.82A2.22,2.22,0,0,1,6.4.38.82.82,0,0,0,5.71,0H4.58A.83.83,0,0,0,3.9.24L.24,3.9a.82.82,0,0,0,0,1.16l2,2a.82.82,0,0,0,1.16,0l.46-.46v7.34a.82.82,0,0,0,.82.82h7.14a.82.82,0,0,0,.82-.82V6.61l.46.46a.82.82,0,0,0,.58.24h0a.82.82,0,0,0,.58-.24l2-2A.82.82,0,0,0,16.27,3.9Z"/></g></g></g></g></svg>