<svg xmlns="http://www.w3.org/2000/svg" viewBox="0 0 206 206"><defs><style>.cls-1,.cls-2,.cls-3{fill:#fff;}.cls-2{stroke:#f4d3d3;}.cls-2,.cls-3{stroke-linecap:round;stroke-miterlimit:10;stroke-width:3px;}.cls-3{stroke:#fba4a2;}</style></defs><title>background_pattern</title><g id="Слой_2" data-name="Слой 2"><g id="Слой_1-2" data-name="Слой 1"><g id="Слой_5" data-name="Слой 5"><rect class="cls-1" width="206" height="206"/><line class="cls-2" x1="13.5" y1="12.5" x2="21" y2="22"/><line class="cls-2" x1="42" y1="144" x2="32.5" y2="138.5"/><line class="cls-3" x1="31.4" y1="83.9" x2="39.1" y2="74.6"/><line class="cls-2" x1="89.4" y1="121.3" x2="85.1" y2="111.2"/><line class="cls-2" x1="106.4" y1="67.9" x2="118.1" y2="64.6"/><line class="cls-2" x1="89.3" y1="153.7" x2="99.2" y2="146.8"/><line class="cls-2" x1="82.6" y1="37.3" x2="71.9" y2="35.2"/><line class="cls-3" x1="126.3" y1="30.5" x2="120.2" y2="20"/><line class="cls-2" x1="158.4" y1="115.9" x2="150.1" y2="108.6"/><line class="cls-3" x1="142.4" y1="154.9" x2="150.1" y2="145.6"/><line class="cls-2" x1="186.4" y1="66.3" x2="182.1" y2="56.2"/><line class="cls-2" x1="116.4" y1="188.9" x2="108.1" y2="181.6"/><line class="cls-2" x1="197.3" y1="141.5" x2="191.2" y2="131"/><line class="cls-2" x1="180.4" y1="194.3" x2="176.1" y2="184.2"/><line class="cls-2" x1="36.4" y1="195.9" x2="48.1" y2="192.6"/></g></g></g></svg>