<svg xmlns="http://www.w3.org/2000/svg" viewBox="0 0 761.14 737.85"><defs><style>.cls-1{fill:#8ac48a;}.cls-2{fill:#77b777;}.cls-3{fill:none;stroke:#fff;stroke-miterlimit:10;}.cls-4{fill:#bababa;}.cls-5{fill:#9b9b9b;}.cls-6{fill:#dba472;}.cls-7{fill:#f2c291;}</style></defs><title>decor_left</title><g id="Слой_2" data-name="Слой 2"><g id="Слой_2-2" data-name="Слой 2"><g id="Слой_1-2" data-name="Слой 1"><path class="cls-1" d="M391.29,476.49,335.58,208.4c7.33-5,8.89-13.22,4.88-19.85a14.48,14.48,0,0,0-10.11-6.81c5.89-18.31,13.9-38.68,13.9-38.68,7.94-11,13.58-25.52,17.36-38.56h0c16.1-60,18.29-61.66,13.05-69a14.53,14.53,0,0,0-23.29-.5c-3.07,3.93-2.57,6.45-8.47,27.16-2.75,10.24-9.31,12-11.22,12.29C304.25,77,301,96.57,290.06,92c-8.78-3.66-4-20.56-25.07-35.49-1.51-1.22-6.31-6-3.56-16.26,5.39-21.36,6.95-22.83,6.27-27.75A14.54,14.54,0,0,0,241.85,5.6c-2.48,3.18-1.32.5-17.82,62h0c-3.26,13.16-5.64,28.64-4.28,42.07,0,0-3.27,21.64-7.34,40.44a14.52,14.52,0,0,0-17.93,20.51L12.11,374.72a17.83,17.83,0,0,0-.76,23c35.36,44.88,85.78,29.8,107.27,66.06a100.69,100.69,0,0,0,137,35.83c34.1-19.67,72.15,18.14,124.82-2.84A17.83,17.83,0,0,0,391.29,476.49Z"/><path class="cls-2" d="M113.67,456.89l98.87-201.74a7.73,7.73,0,1,0-13.88-6.8L101.49,446.63A50.78,50.78,0,0,1,113.67,456.89Z"/><path class="cls-2" d="M285.25,265.27a7.73,7.73,0,0,0-8.24,7.18L261.56,496.79a46.18,46.18,0,0,1,15.7-3l15.17-220.28A7.73,7.73,0,0,0,285.25,265.27Z"/><path class="cls-2" d="M340.12,190a14.52,14.52,0,0,0-19.78-5c-7.8,3.31-36.55.23-63.51-8.47a179.61,179.61,0,0,1-17.71-6.7c3-13.71,6.76-32.71,8.91-43.59a74.42,74.42,0,0,0,1.29-15.42c-.16-11.66,1.94-24.24,4.66-35.2h0c2.81-10.46,5.1-19.05,7-26.14a19.76,19.76,0,0,1,.5-9.18c5.39-21.36,6.95-22.83,6.27-27.75A14.54,14.54,0,0,0,241.85,5.6c-2.48,3.19-1.32.5-17.82,62h0c-3.26,13.16-5.64,28.64-4.28,42.07,0,0-3.44,22.77-7.65,41.89a14.51,14.51,0,0,0-18.28,19.81L12.11,374.72a17.83,17.83,0,0,0-.76,23,91.64,91.64,0,0,0,30.85,25.32,99.19,99.19,0,0,1-7-8,18.52,18.52,0,0,1,.79-23.94L215.31,190.41c14.6,8.17,32.76,14.13,44.62,17.31-.39-.1,43.87,12.18,66.2,5.81C341,210.43,345.45,198.8,340.12,190Z"/><path class="cls-3" d="M384.29,483.49,328.58,215.4c7.33-5,8.89-13.22,4.88-19.85a14.48,14.48,0,0,0-10.11-6.81c5.89-18.31,13.9-38.68,13.9-38.68,7.94-11,13.58-25.52,17.36-38.56h0c16.1-60,18.29-61.66,13.05-69a14.53,14.53,0,0,0-23.29-.5c-3.07,3.93-2.57,6.45-8.47,27.16-2.75,10.24-9.31,12-11.22,12.29C297.25,84,294,103.57,283.06,99c-8.78-3.66-4-20.56-25.07-35.49-1.51-1.22-6.31-6-3.56-16.26,5.39-21.36,6.95-22.83,6.27-27.75a14.54,14.54,0,0,0-25.85-6.94c-2.48,3.18-1.32.5-17.82,62h0c-3.26,13.16-5.64,28.64-4.28,42.07,0,0-3.27,21.64-7.34,40.44a14.52,14.52,0,0,0-17.93,20.51L5.11,381.72a17.83,17.83,0,0,0-.76,23c35.36,44.88,85.78,29.8,107.27,66.06a100.69,100.69,0,0,0,137,35.83c34.1-19.67,72.15,18.14,124.82-2.84A17.83,17.83,0,0,0,384.29,483.49Z"/><path class="cls-3" d="M106.67,463.89l98.87-201.74a7.73,7.73,0,1,0-13.88-6.8L94.49,453.63A50.78,50.78,0,0,1,106.67,463.89Z"/><path class="cls-3" d="M278.25,272.27a7.73,7.73,0,0,0-8.24,7.18L254.56,503.79a46.18,46.18,0,0,1,15.7-3l15.17-220.28A7.73,7.73,0,0,0,278.25,272.27Z"/><path class="cls-3" d="M333.12,197a14.52,14.52,0,0,0-19.78-5c-7.8,3.31-36.55.23-63.51-8.47a179.61,179.61,0,0,1-17.71-6.7c3-13.71,6.76-32.71,8.91-43.59a74.42,74.42,0,0,0,1.29-15.42c-.16-11.66,1.94-24.24,4.66-35.2h0c2.81-10.46,5.1-19.05,7-26.14a19.76,19.76,0,0,1,.5-9.18c5.39-21.36,6.95-22.83,6.27-27.75a14.54,14.54,0,0,0-25.85-6.94c-2.48,3.19-1.32.5-17.82,62h0c-3.26,13.16-5.64,28.64-4.28,42.07,0,0-3.44,22.77-7.65,41.89a14.51,14.51,0,0,0-18.28,19.81L5.11,381.72a17.83,17.83,0,0,0-.76,23,91.64,91.64,0,0,0,30.85,25.32,99.19,99.19,0,0,1-7-8,18.52,18.52,0,0,1,.79-23.94L208.31,197.41c14.6,8.17,32.76,14.13,44.62,17.31-.39-.1,43.87,12.18,66.2,5.81C334,217.43,338.45,205.8,333.12,197Z"/><path class="cls-4" d="M18.43,641.92c8,10.69,30.89,30.48,55.44,57.47a3.44,3.44,0,0,0,4.6.46l3-2.24a3.43,3.43,0,0,0,.69-4.8l-39.92-53.4q-5.89.44-12.09,1.09Q24.14,641.14,18.43,641.92Z"/><path class="cls-5" d="M208.2,573.84l-39.8,9.61a6.85,6.85,0,0,0-5.11,5.31c-1.3,6.37-4.52,14.7-15.89,20.65l.14-.11c-18.51,8.3-69.93-20.5-109.06-29.85a248.45,248.45,0,0,0-34-5.94,2.41,2.41,0,0,0-2.61,2.81L3.06,583a4.09,4.09,0,0,0,3.28,3.34c9.92,1.84,45,9.54,83.64,32.1A703.05,703.05,0,0,0,17.08,628a3.43,3.43,0,0,0-2.5,4.69l3.85,9.19s42.58-6.36,83.72-2.61c46,4.19,64.51-5.39,75.5-13.6a198.49,198.49,0,0,0,41.92-43.18,3.41,3.41,0,0,0-.08-4l-.64-.85A10.29,10.29,0,0,0,208.2,573.84Z"/><path class="cls-3" d="M18,649.72c8,10.69,30.89,30.48,55.44,57.47a3.44,3.44,0,0,0,4.6.46l3-2.24a3.43,3.43,0,0,0,.69-4.8L41.84,647.2q-5.89.44-12.09,1.09Q23.72,648.94,18,649.72Z"/><path class="cls-3" d="M207.79,581.64,168,591.25a6.85,6.85,0,0,0-5.11,5.31c-1.3,6.37-4.52,14.7-15.89,20.65l.14-.11c-18.51,8.3-69.93-20.5-109.06-29.85a248.45,248.45,0,0,0-34-5.94,2.41,2.41,0,0,0-2.61,2.81l1.15,6.66a4.09,4.09,0,0,0,3.28,3.34c9.92,1.84,45,9.54,83.64,32.1a703.05,703.05,0,0,0-72.9,9.62,3.43,3.43,0,0,0-2.5,4.69L18,649.72s42.58-6.36,83.72-2.61c46,4.19,64.51-5.39,75.5-13.6a198.49,198.49,0,0,0,41.92-43.18,3.41,3.41,0,0,0-.08-4l-.64-.85A10.29,10.29,0,0,0,207.79,581.64Z"/><path class="cls-6" d="M456.18,613.48l56-99-7.62-4.31a17.51,17.51,0,0,0-23.85,6.62l-38.76,68.56a17.5,17.5,0,0,0,6.62,23.85l7.62,4.31Z"/><path class="cls-6" d="M717.84,630.73l-7.62-4.31-56,99h0l7.62,4.31a17.5,17.5,0,0,0,23.85-6.62l38.76-68.56A17.51,17.51,0,0,0,717.84,630.73Z"/><path class="cls-7" d="M691.68,605.89,539.33,519.75a34.91,34.91,0,0,1-17-23.25l-66.13,117a17.5,17.5,0,0,0,6.62,23.85l167.59,94.75a17.5,17.5,0,0,0,23.85-6.62l66.13-117A34.91,34.91,0,0,1,691.68,605.89Z"/><path class="cls-6" d="M675.8,456.17c12.61,7.13,19,19.75,14.24,28.16l15.24,8.61c9.51-16.83.18-40.11-20.86-52s-45.8-7.89-55.32,8.94l15.24,8.61C649.08,450.08,663.18,449,675.8,456.17Z"/><path class="cls-6" d="M591,428.34l152.35,86.13a35,35,0,0,1,13.24,47.7l-17.23,30.47a35,35,0,0,1-47.7,13.24L539.33,519.75a35,35,0,0,1-13.24-47.7l17.23-30.47A35,35,0,0,1,591,428.34Z"/><path class="cls-7" d="M515.8,596.93s-2.74,18.56,3,21.83c5.64,3.19,19.8-8.91,19.8-8.91l90.44-160L606.24,437Zm189.47-104-90.44,160s-2.74,18.56,3,21.83c5.64,3.19,19.8-8.91,19.8-8.91l90.44-160Z"/><path class="cls-6" d="M516.8,577.38l38.09,21.53,12.92-22.85-38.09-21.53Zm112,33.13-12.92,22.85,38.09,21.53,12.92-22.85Z"/><path class="cls-3" d="M447.18,616.48l56-99-7.62-4.31a17.51,17.51,0,0,0-23.85,6.62l-38.76,68.56a17.5,17.5,0,0,0,6.62,23.85l7.62,4.31Z"/><path class="cls-3" d="M708.84,633.73l-7.62-4.31-56,99h0l7.62,4.31a17.5,17.5,0,0,0,23.85-6.62l38.76-68.56A17.51,17.51,0,0,0,708.84,633.73Z"/><path class="cls-3" d="M682.68,608.89,530.33,522.75a34.91,34.91,0,0,1-17-23.25l-66.13,117a17.5,17.5,0,0,0,6.62,23.85l167.59,94.75a17.5,17.5,0,0,0,23.85-6.62l66.13-117A34.91,34.91,0,0,1,682.68,608.89Z"/><path class="cls-3" d="M666.8,459.17c12.61,7.13,19,19.75,14.24,28.16l15.24,8.61c9.51-16.83.18-40.11-20.86-52s-45.8-7.89-55.32,8.94l15.24,8.61C640.08,453.08,654.18,452,666.8,459.17Z"/><path class="cls-3" d="M582,431.34l152.35,86.13a35,35,0,0,1,13.24,47.7l-17.23,30.47a35,35,0,0,1-47.7,13.24L530.33,522.75a35,35,0,0,1-13.24-47.7l17.23-30.47A35,35,0,0,1,582,431.34Z"/><path class="cls-3" d="M506.8,599.93s-2.74,18.56,3,21.83c5.64,3.19,19.8-8.91,19.8-8.91l90.44-160L597.24,440Zm189.47-104-90.44,160s-2.74,18.56,3,21.83c5.64,3.19,19.8-8.91,19.8-8.91l90.44-160Z"/><path class="cls-3" d="M507.8,580.38l38.09,21.53,12.92-22.85-38.09-21.53Zm112,33.13-12.92,22.85,38.09,21.53,12.92-22.85Z"/></g></g></g></svg>