<svg id="Слой_1" data-name="Слой 1" xmlns="http://www.w3.org/2000/svg" viewBox="0 0 300 300"><defs><style>.cls-1{fill:#e0e0e0;}.cls-2{fill:#fff;}</style></defs><title>avatar_placeholder</title><rect class="cls-1" width="300" height="300"/><path class="cls-2" d="M149.86,135.44A17.31,17.31,0,0,0,137.62,165a17.31,17.31,0,1,0,24.49-24.49A16.73,16.73,0,0,0,149.86,135.44Z"/><path class="cls-2" d="M202.82,114.94A14.75,14.75,0,0,0,192,110.4H178.61l-3-8.12a13,13,0,0,0-4.13-5.09,11.09,11.09,0,0,0-6.19-2.06H134.59a11.09,11.09,0,0,0-6.19,2.06,10.36,10.36,0,0,0-4.13,5.09l-3,8.12H107.91A15.5,15.5,0,0,0,92.5,125.81v53.65a15.5,15.5,0,0,0,15.41,15.41h84.19a15.5,15.5,0,0,0,15.41-15.41V125.81A16.68,16.68,0,0,0,202.82,114.94Zm-34.11,56.67a26.85,26.85,0,0,1-38-38,26.82,26.82,0,0,1,45.81,19C176.69,159.93,173.94,166.25,168.71,171.62Z"/></svg>