<svg xmlns="http://www.w3.org/2000/svg" viewBox="0 0 779.04 845.31"><defs><style>.cls-1{fill:#ffd4b0;}.cls-2{fill:#ffeed6;}.cls-3{fill:none;stroke:#fff;stroke-miterlimit:10;}.cls-4{fill:pink;}.cls-5{fill:#fff;}.cls-6{fill:#ffebea;}.cls-7{fill:#a0d2f0;}.cls-8{fill:#b4e1fa;}</style></defs><title>decor_right</title><g id="Слой_2" data-name="Слой 2"><g id="Слой_2-2" data-name="Слой 2"><g id="Слой_1-2" data-name="Слой 1"><rect class="cls-1" x="163.09" y="735.84" width="204.2" height="60.7" transform="translate(-334.56 220.6) rotate(-28.62)"/><rect class="cls-1" x="38.24" y="779.37" width="51.9" height="78.2" transform="translate(-754.64 878.01) rotate(-89.67)"/><rect class="cls-1" x="382.1" y="605.5" width="78.2" height="44.3" transform="translate(-334.45 646.4) rotate(-57.56)"/><path class="cls-2" d="M104.65,743.79l-1.39,64.89a1,1,0,0,1-1,1l-76.09-.41a1,1,0,0,1-1-1l2-236.22Z"/><path class="cls-2" d="M333.29,619.16l55.32,34a1,1,0,0,0,1.42-.32l40.84-64.2a1,1,0,0,0-.32-1.42L230.88,461.1Z"/><path class="cls-2" d="M189.29,449.39a91.7,91.7,0,0,1,77.16,47.67l99.71,182.77a22.75,22.75,0,0,1-9.06,30.8L168.55,813.51a22.75,22.75,0,0,1-30.8-9.06L38,621.68A91.92,91.92,0,0,1,39.71,531Z"/><path class="cls-1" d="M303.83,693.79,183.31,759.55c-7.46,4.07,3-9.59-1.1-17.06L154,690.78c-4.07-7.46-21.21-6.09-13.74-10.16l120.53-65.76c7.46-4.07-1.21,8.64,2.86,16.1l28.21,51.71C296,690.22,311.3,689.72,303.83,693.79Z"/><path class="cls-1" d="M200.25,450.48a97,97,0,0,0-11-1.08L39.8,531a97,97,0,0,0-5,9.8c37.23,31.29,102.6-9,102.6-9S206.41,498.72,200.25,450.48Z"/><path class="cls-1" d="M141,621.66a7.7,7.7,0,0,1-10.45-3.07l-38-69.7A7.7,7.7,0,0,1,106,541.51l38,69.7A7.64,7.64,0,0,1,141,621.66Z"/><path class="cls-1" d="M210.88,583.54a7.7,7.7,0,0,1-10.45-3.07l-38-69.7a7.7,7.7,0,0,1,13.52-7.38l38,69.7A7.64,7.64,0,0,1,210.88,583.54Z"/><path class="cls-2" d="M183.87,412.94c25.86,47.4-39.05,132.83-39.05,132.83S37.9,554.2,12,506.71a97.9,97.9,0,1,1,171.88-93.77Z"/><path class="cls-1" d="M144.28,434.54c13.94,25.55.62,111.18.62,111.18S65.74,510.65,51.76,485a52.7,52.7,0,0,1,92.53-50.48Z"/><path class="cls-1" d="M72.4,505.53c28.21,20.6,72.37,40.15,72.37,40.15s7.47-47.7,5.41-82.58a74.68,74.68,0,0,0-45.88,8.4A75.82,75.82,0,0,0,72.4,505.53Z"/><polygon class="cls-1" points="103.75 785.98 104.63 745.63 26.85 603.06 26.5 644.38 103.75 785.98"/><polygon class="cls-1" points="332.18 618.17 332.94 619.36 367.17 640.33 289.87 498.64 254.98 476.67 332.18 618.17"/><rect class="cls-3" x="152.75" y="741.53" width="204.2" height="60.7" transform="translate(-317.95 195.12) rotate(-26.53)"/><rect class="cls-3" x="26.13" y="777.72" width="51.9" height="78.2" transform="translate(-766.21 834.5) rotate(-87.59)"/><rect class="cls-3" x="376.7" y="616.96" width="78.2" height="44.3" transform="translate(-346.41 619.42) rotate(-55.47)"/><path class="cls-3" d="M95.23,743.66l-3.75,64.8a1,1,0,0,1-1.07,1l-76-3.18a1,1,0,0,1-1-1.07L24,569.2Z"/><path class="cls-3" d="M328.26,627.43l54,35.94a1,1,0,0,0,1.43-.27l43.15-62.67a1,1,0,0,0-.27-1.43l-195-133.25Z"/><path class="cls-3" d="M190.53,452.53A91.7,91.7,0,0,1,265.9,503l93,186.27a22.75,22.75,0,0,1-10.17,30.45L156.55,815.65a22.75,22.75,0,0,1-30.45-10.17l-93-186.27a91.92,91.92,0,0,1,5-90.56Z"/><path class="cls-3" d="M296.1,700.93,173.26,762.26c-7.6,3.8,3.31-9.48-.48-17.08l-26.31-52.7c-3.8-7.6-21-6.85-13.37-10.65L255.95,620.5c7.6-3.8-1.53,8.59,2.27,16.19l26.31,52.7C288.37,697.08,303.71,697.14,296.1,700.93Z"/><path class="cls-3" d="M201.44,454a97,97,0,0,0-10.91-1.48L38.16,528.6a97,97,0,0,0-5.37,9.61c36.07,32.62,102.86-5.31,102.86-5.31S205.84,502.45,201.44,454Z"/><path class="cls-3" d="M136,622.93a7.7,7.7,0,0,1-10.33-3.45l-35.47-71A7.7,7.7,0,1,1,104,541.57l35.47,71A7.64,7.64,0,0,1,136,622.93Z"/><path class="cls-3" d="M207.22,587.38a7.7,7.7,0,0,1-10.33-3.45l-35.47-71A7.7,7.7,0,0,1,175.2,506l35.47,71A7.64,7.64,0,0,1,207.22,587.38Z"/><path class="cls-3" d="M186.44,415.9c24.12,48.31-43.86,131.32-43.86,131.32S35.42,551.77,11.26,503.36A97.9,97.9,0,1,1,186.44,415.9Z"/><path class="cls-3" d="M146.09,436c13,26-3.42,111.13-3.42,111.13s-77.84-37.93-90.88-64.05A52.7,52.7,0,0,1,146.09,436Z"/><path class="cls-3" d="M71.67,504.38c27.45,21.62,70.86,42.75,70.86,42.75s9.2-47.4,8.41-82.33a74.68,74.68,0,0,0-46.16,6.73A75.82,75.82,0,0,0,71.67,504.38Z"/><polygon class="cls-3" points="92.79 785.78 95.14 745.49 22.6 600.19 20.74 641.47 92.79 785.78"/><polygon class="cls-3" points="327.18 626.4 327.9 627.61 361.34 649.81 289.24 505.41 255.18 482.18 327.18 626.4"/><path class="cls-4" d="M611.63,625.59,682,563.46c.48-.52,3.33-3.86.35-6.86a3.17,3.17,0,0,1,4.56-4.41c4,3.95,3.58,8.82,2,12.37l65.49,32.28a3.11,3.11,0,0,1,1.52,3.8c-.34.88-43,78.36,14.89,131.84,10.2,9.43,10.28,27.23,3.81,36.82l-.36.39a25.17,25.17,0,0,1-13.83,9c-57-53.15-111.92-102-157.54-144.9Z"/><path class="cls-5" d="M708.46,597.27a24.62,24.62,0,1,0,1.37,34.79A24.69,24.69,0,0,0,708.46,597.27Z"/><path class="cls-4" d="M683.93,603.34a2.15,2.15,0,0,1,2.12,0l6.14,4.24,7-2.89a2.12,2.12,0,0,1,2.13.29,1.91,1.91,0,0,1,.46,2.1l-2.33,7.19,4.71,5.79a2.15,2.15,0,0,1,.21,2.11,2.31,2.31,0,0,1-1.82,1.19l-7.58.42-4.35,6.52a1.77,1.77,0,0,1-2,.82,1.29,1.29,0,0,1-1-.46,2.23,2.23,0,0,1-.66-.85L684.71,623l-7-1.71a2.23,2.23,0,0,1-.89-.59,3.26,3.26,0,0,1-.67-1.09,2.24,2.24,0,0,1,.67-2l6.16-4.85-.17-7.59A1.87,1.87,0,0,1,683.93,603.34Z"/><path class="cls-5" d="M734.14,645.67l7-.27.5,0c.51-2.88.9-5.64,1.54-8.4a4.43,4.43,0,0,0-2.39-.53l-7,.27a4.48,4.48,0,1,0,.35,8.95Zm6.12,6.85-7,.27a4.67,4.67,0,0,0-4.42,4.78,4.46,4.46,0,0,0,4.65,4.3l7-.27q0-4.67.39-9A.93.93,0,0,0,740.26,652.52ZM735.41,678l6.21-.24c-.5-3.09-.73-5.95-1-9l-5.47.21a4.67,4.67,0,0,0-4.42,4.78A4.46,4.46,0,0,0,735.41,678Z"/><path class="cls-5" d="M721.9,742.86a66.23,66.23,0,0,1,8-10.77,56.63,56.63,0,0,1,26.49-16.47l.13.12-3.45-5.34a56.91,56.91,0,0,0-28.33,16.92,55.64,55.64,0,0,0-7.91,10.89"/><path class="cls-6" d="M774.46,769.17c6.72-9.6,6.51-27.51-3.69-36.94a96.72,96.72,0,0,1-14.47-16.73,58.16,58.16,0,0,0-26.36,16.59,66.23,66.23,0,0,0-8,10.77c12.66,11.7,25.56,23.39,38.61,35.45a24.13,24.13,0,0,0,13.83-9Z"/><path class="cls-6" d="M608.42,638.91l82.25-73.43-2-.92c1.72-3.68,2-8.42-2-12.37a3.17,3.17,0,0,0-4.56,4.41c2.85,2.87.12,6.34-.35,6.86l-70.12,62.12-8.76,8.19,5.55,5.13Z"/><path class="cls-6" d="M766.11,775.1,609.32,630.16a5.71,5.71,0,0,0-8.08.19l-1.91,2.07a5.71,5.71,0,0,0,.44,8.07L756.56,785.43a5.71,5.71,0,0,0,8.08-.19l1.91-2.07A5.71,5.71,0,0,0,766.11,775.1Z"/><path class="cls-5" d="M665.76,682.34l5,4.66-9.55,10.33-5-4.66ZM627,646.52l5,4.66-9.55,10.33-5-4.66Zm25.83,23.88,5,4.66-9.55,10.33-5-4.66Zm-12.92-11.94,5,4.66-9.55,10.33-5-4.66Zm38.75,35.82,5,4.66-9.55,10.33-5-4.66Zm-64.58-59.69,5,4.66-9.55,10.33-5-4.66ZM743.25,754l5,4.66L738.73,769l-5-4.66Zm12.92,11.94,5,4.66-9.55,10.33-5-4.66ZM730.33,742l5,4.66L725.82,757l-5-4.66ZM704.5,718.15l5,4.66L700,733.14l-5-4.66Zm-12.92-11.94,5,4.66-9.55,10.33-5-4.66Zm25.83,23.88,5,4.66-9.55,10.33-5-4.66Z"/><path class="cls-3" d="M615,621.6,687.54,562c.5-.5,3.47-3.74.6-6.84a3.17,3.17,0,0,1,4.71-4.25c3.87,4.09,3.27,8.94,1.54,12.43l64.3,34.58a3.11,3.11,0,0,1,1.38,3.85c-.37.87-45.72,76.78,10.2,132.29,9.86,9.79,9.31,27.57,2.5,36.93l-.37.37a25.17,25.17,0,0,1-14.15,8.51C703.2,724.74,650,674,606,629.47Z"/><path class="cls-3" d="M712.79,596.73a24.62,24.62,0,1,0,.13,34.82A24.69,24.69,0,0,0,712.79,596.73Z"/><path class="cls-3" d="M688.06,601.93a2.15,2.15,0,0,1,2.11.12l6,4.45,7.08-2.64a2.12,2.12,0,0,1,2.12.36,1.91,1.91,0,0,1,.38,2.11l-2.58,7.1,4.5,6a2.15,2.15,0,0,1,.13,2.11,2.31,2.31,0,0,1-1.86,1.13l-7.59.15-4.58,6.36a1.77,1.77,0,0,1-2,.75,1.29,1.29,0,0,1-1-.49,2.23,2.23,0,0,1-.63-.87l-2-7-7-2a2.23,2.23,0,0,1-.87-.62,3.26,3.26,0,0,1-.63-1.12,2.24,2.24,0,0,1,.74-2l6.33-4.63.1-7.59A1.87,1.87,0,0,1,688.06,601.93Z"/><path class="cls-3" d="M736.73,646l7,0h.5c.61-2.86,1.1-5.6,1.83-8.34a4.43,4.43,0,0,0-2.37-.61l-7,0a4.48,4.48,0,1,0,0,9Zm5.87,7.07-7,0a4.67,4.67,0,0,0-4.58,4.62,4.46,4.46,0,0,0,4.49,4.46l7,0q.17-4.66.71-9A.93.93,0,0,0,742.6,653.08Zm-5.75,25.27,6.22,0c-.39-3.11-.52-6-.66-9.08l-5.47,0a4.67,4.67,0,0,0-4.58,4.62A4.46,4.46,0,0,0,736.86,678.35Z"/><path class="cls-3" d="M721.06,742.71a66.23,66.23,0,0,1,8.42-10.48,56.63,56.63,0,0,1,27.05-15.52l.12.12-3.25-5.46a56.91,56.91,0,0,0-28.92,15.9,55.64,55.64,0,0,0-8.29,10.6"/><path class="cls-3" d="M772.65,770.87c7.05-9.35,7.48-27.26-2.38-37.05a96.72,96.72,0,0,1-13.87-17.23,58.16,58.16,0,0,0-26.93,15.65,66.23,66.23,0,0,0-8.42,10.48c12.23,12.14,24.72,24.28,37.32,36.79A24.13,24.13,0,0,0,772.52,771Z"/><path class="cls-3" d="M611.33,634.8l84.8-70.46-2-1c1.85-3.61,2.33-8.34-1.54-12.43a3.17,3.17,0,0,0-4.71,4.25c2.75,3-.1,6.34-.6,6.84L615,621.6l-9,7.87,5.37,5.33Z"/><path class="cls-3" d="M764.09,776.5,612.54,626.09a5.71,5.71,0,0,0-8.08-.09l-2,2a5.71,5.71,0,0,0,.16,8.08L754.18,786.48a5.71,5.71,0,0,0,8.08.09l2-2A5.71,5.71,0,0,0,764.09,776.5Z"/><path class="cls-3" d="M667.09,680.23l4.87,4.83-9.91,10-4.87-4.83Zm-37.45-37.17,4.87,4.83-9.91,10-4.87-4.83Zm25,24.78,4.87,4.83-9.91,10-4.87-4.83Zm-12.48-12.39,4.87,4.83-9.91,10-4.87-4.83Zm37.45,37.17,4.87,4.83-9.91,10-4.87-4.83Zm-62.42-61.95,4.87,4.83-9.91,10-4.87-4.83ZM742,754.57l4.87,4.83-9.91,10-4.87-4.83ZM754.48,767l4.87,4.83-9.91,10-4.87-4.83Zm-25-24.78,4.87,4.83-9.91,10-4.87-4.83Zm-25-24.78,4.87,4.83-9.91,10-4.87-4.83ZM692.06,705l4.87,4.83-9.91,10L682.15,715Zm25,24.78,4.87,4.83-9.91,10-4.87-4.83Z"/><path class="cls-7" d="M519,18.62l-6.83,34.64L720,94.23l6.83-34.64a8.83,8.83,0,0,0-7-10.37L529.36,11.67A8.83,8.83,0,0,0,519,18.62Z"/><path class="cls-8" d="M712.42,83.74l-42.65-8.41,5.12-26a8.83,8.83,0,0,0-17.32-3.41l-5.12,26L583.16,58.26l5.12-26A8.83,8.83,0,0,0,571,28.86l-5.12,26-42.65-8.41A17.65,17.65,0,0,0,502.34,61L431.69,505.6a8.83,8.83,0,0,0,7,10l60.94,12a8.83,8.83,0,0,0,10.37-7l66.58-337.78a17.66,17.66,0,0,1,34.64,6.83L544.65,527.53a8.83,8.83,0,0,0,7,10.37l60.94,12a8.83,8.83,0,0,0,10.3-6.63L726.19,105.11A17.65,17.65,0,0,0,712.42,83.74Z"/><path class="cls-7" d="M712.74,132.94A30.9,30.9,0,0,1,688.4,96.66l3.35-17L678.43,77,675,94.36a44.14,44.14,0,0,0,34.77,51.84l6.42,1.26,3.12-13.22-6.58-1.3Z"/><path class="cls-7" d="M504.22,91.85a30.9,30.9,0,0,0,36.29-24.34l3.35-17,13.32,2.63-3.41,17.32a44.14,44.14,0,0,1-51.84,34.77L495.51,104l2.13-13.42,6.58,1.3Z"/><path class="cls-7" d="M588.19,169.71a17.14,17.14,0,0,1,17.32,3.41l21-106.33-17.32-3.41-21,106.33Z"/><path class="cls-7" d="M510,520.7l3.41-17.32-78.91-15.55-2.82,17.77a8.83,8.83,0,0,0,7,10l60.94,12A8.83,8.83,0,0,0,510,520.7Z"/><path class="cls-7" d="M622.85,543.28,627,525.76l-78.91-15.55-3.41,17.32a8.83,8.83,0,0,0,7,10.37l60.94,12A8.83,8.83,0,0,0,622.85,543.28Z"/><path class="cls-3" d="M507,7.62l-6.83,34.64L708,83.22l6.83-34.64a8.83,8.83,0,0,0-7-10.37L517.35.67A8.83,8.83,0,0,0,507,7.62Z"/><path class="cls-3" d="M700.41,72.73l-42.65-8.4,5.12-26a8.83,8.83,0,0,0-17.32-3.41l-5.12,26L571.15,47.26l5.12-26a8.83,8.83,0,0,0-17.32-3.41l-5.12,26-42.65-8.4A17.65,17.65,0,0,0,490.33,50L419.7,494.61a8.83,8.83,0,0,0,7,10l60.94,12a8.83,8.83,0,0,0,10.37-7l66.55-337.78a17.66,17.66,0,0,1,34.64,6.83L532.67,516.53a8.83,8.83,0,0,0,7,10.37l60.94,12a8.83,8.83,0,0,0,10.3-6.64L714.18,94.1A17.65,17.65,0,0,0,700.41,72.73Z"/><path class="cls-3" d="M700.73,121.94a30.9,30.9,0,0,1-24.34-36.29l3.35-17L666.42,66,663,83.35a44.14,44.14,0,0,0,34.77,51.84l6.42,1.26,3.12-13.22-6.58-1.3Z"/><path class="cls-3" d="M492.21,80.85A30.9,30.9,0,0,0,528.5,56.51l3.35-17,13.32,2.62-3.41,17.32a44.14,44.14,0,0,1-51.84,34.77L483.5,93l2.13-13.42,6.58,1.3Z"/><path class="cls-3" d="M576.18,158.71a17.14,17.14,0,0,1,17.32,3.41l21-106.34-17.32-3.41-21,106.34Z"/><path class="cls-3" d="M498,509.71l3.41-17.32-78.91-15.55-2.82,17.77a8.83,8.83,0,0,0,7,10l60.94,12A8.83,8.83,0,0,0,498,509.71Z"/><path class="cls-3" d="M610.86,532.27,615,514.76l-78.91-15.55-3.41,17.32a8.83,8.83,0,0,0,7,10.37l60.94,12A8.83,8.83,0,0,0,610.86,532.27Z"/></g></g></g></svg>