<svg xmlns="http://www.w3.org/2000/svg" viewBox="0 0 34.6 34.6"><defs><style>.cls-1{fill:#bcbcbc;}.cls-2{fill:#fff;}</style></defs><title>forward_arrow</title><g id="Слой_2" data-name="Слой 2"><g id="Слой_1-2" data-name="Слой 1"><g id="categories"><g id="forward"><path class="cls-1" d="M0,17.3A17.3,17.3,0,1,1,17.3,34.6,17.37,17.37,0,0,1,0,17.3Z"/><path class="cls-2" d="M13,10a2.13,2.13,0,0,0,.7,1.5h0l6.4,5.9-6.4,5.9h0a2.13,2.13,0,0,0-.7,1.5,2,2,0,0,0,2,2,1.9,1.9,0,0,0,1.3-.5h0l8-7.3a2.18,2.18,0,0,0,0-3l-8-7.3h0A2.11,2.11,0,0,0,15,8.2,1.74,1.74,0,0,0,13,10Z"/></g></g></g></g></svg>